<svg viewBox="-75 0 384 384" xmlns="http://www.w3.org/2000/svg"><path fill="#FFF" d="M90.668 384H37.332C16.746 384 0 367.254 0 346.668c0-7.746 2.39-15.277 6.719-21.184L98.945 192 6.465 58.156C2.39 52.61 0 45.078 0 37.332 0 16.746 16.746 0 37.332 0h53.336c12.437 0 24.02 6.25 31.016 16.727l106.52 154.472c4.073 5.528 6.464 13.059 6.464 20.801s-2.39 15.273-6.723 21.184l-106.41 154.28A37.112 37.112 0 0190.668 384zM37.332 32C34.434 32 32 34.434 32 37.332c0 1.152.363 2.05.535 2.262l99.028 143.297c3.777 5.46 3.777 12.714 0 18.199L32.788 344.02c-.426.597-.789 1.496-.789 2.648 0 2.898 2.434 5.332 5.332 5.332h53.336c2.387 0 3.773-1.559 4.394-2.496l106.817-154.86c.426-.597.789-1.492.789-2.644s-.363-2.047-.535-2.262L95.21 34.688C94.44 33.557 93.055 32 90.668 32zm0 0"/></svg>